
<!-- CivicView logo. Copyright (c) 2026 Jeffrey Nuez. All rights reserved. -->
<svg xmlns="http://www.w3.org/2000/svg" viewBox="0 0 64 64" width="64" height="64" role="img" aria-label="CivicView">
  <title>CivicView</title>
  <desc>CivicView logo. Copyright (c) 2026 Jeffrey Nuez. All rights reserved.</desc>
  <defs>
    <clipPath id="cl-lens-c"><circle cx="26" cy="26" r="20.75"></circle></clipPath>
    <symbol id="cl-star-c" viewBox="-1 -1 2 2" overflow="visible">
      <polygon fill="#ffffff" points="0,-1 0.2245,-0.309 0.951,-0.309 0.363,0.118 0.588,0.809 0,0.382 -0.588,0.809 -0.363,0.118 -0.951,-0.309 -0.2245,-0.309"></polygon>
    </symbol>
  </defs>

  
  <g clip-path="url(#cl-lens-c)">
    
    <rect x="5" y="5" width="42" height="42" fill="#ffffff"></rect>
    
    <rect x="5" y="11.7" width="42" height="2.86" fill="#8a2929"></rect>
    <rect x="5" y="17.43" width="42" height="2.86" fill="#8a2929"></rect>
    <rect x="5" y="23.14" width="42" height="2.86" fill="#8a2929"></rect>
    <rect x="5" y="28.86" width="42" height="2.86" fill="#8a2929"></rect>
    <rect x="5" y="34.57" width="42" height="2.86" fill="#8a2929"></rect>
    <rect x="5" y="40.29" width="42" height="2.86" fill="#8a2929"></rect>

    
    <rect x="5" y="5" width="20" height="20" fill="#1a1a2e"></rect>

    
    <g>
      <use href="#cl-star-c" x="9" y="9" width="2.4" height="2.4"></use>
      <use href="#cl-star-c" x="13.8" y="9" width="2.4" height="2.4"></use>
      <use href="#cl-star-c" x="18.6" y="9" width="2.4" height="2.4"></use>
      <use href="#cl-star-c" x="9" y="13.8" width="2.4" height="2.4"></use>
      <use href="#cl-star-c" x="13.8" y="13.8" width="2.4" height="2.4"></use>
      <use href="#cl-star-c" x="18.6" y="13.8" width="2.4" height="2.4"></use>
      <use href="#cl-star-c" x="9" y="18.6" width="2.4" height="2.4"></use>
      <use href="#cl-star-c" x="13.8" y="18.6" width="2.4" height="2.4"></use>
      <use href="#cl-star-c" x="18.6" y="18.6" width="2.4" height="2.4"></use>
    </g>

    
    <line x1="9" y1="14" x2="20" y2="6" stroke="#ffffff" stroke-width="1.6" stroke-linecap="round" opacity="0.14"></line>
  </g>

  
  <circle cx="26" cy="26" r="20.75" fill="none" stroke="#1a1a2e" stroke-width="2.5"></circle>

  
  <rect x="42" y="44" width="14" height="4.6" rx="1.4" transform="rotate(45 42 44)" fill="#1a1a2e"></rect>
</svg>