<svg xmlns="http://www.w3.org/2000/svg" viewBox="0 0 64 64" role="img" aria-label="CivicView">
  <title>CivicView</title>
  <defs>
    <clipPath id="cv-lens"><circle cx="26" cy="26" r="20.75"></circle></clipPath>

    
    <radialGradient id="cv-glass" cx="0.28" cy="0.22" r="0.55">
      <stop offset="0%" stop-color="#ffffff" stop-opacity="0.42"></stop>
      <stop offset="55%" stop-color="#ffffff" stop-opacity="0.10"></stop>
      <stop offset="100%" stop-color="#ffffff" stop-opacity="0"></stop>
    </radialGradient>

    
    <radialGradient id="cv-glass2" cx="0.82" cy="0.78" r="0.22">
      <stop offset="0%" stop-color="#ffffff" stop-opacity="0.18"></stop>
      <stop offset="100%" stop-color="#ffffff" stop-opacity="0"></stop>
    </radialGradient>

    
    <linearGradient id="cv-stripe" x1="0" y1="0" x2="0" y2="1">
      <stop offset="0%" stop-color="#a23636"></stop>
      <stop offset="100%" stop-color="#8a2929"></stop>
    </linearGradient>

    
    <linearGradient id="cv-handle" x1="0" y1="0" x2="0" y2="1">
      <stop offset="0%" stop-color="#3a3a52"></stop>
      <stop offset="55%" stop-color="#1a1a2e"></stop>
      <stop offset="100%" stop-color="#0d0d18"></stop>
    </linearGradient>

    
    <radialGradient id="cv-rim" cx="0.5" cy="0.5" r="0.5">
      <stop offset="92%" stop-color="#ffffff" stop-opacity="0"></stop>
      <stop offset="100%" stop-color="#ffffff" stop-opacity="0.55"></stop>
    </radialGradient>
  </defs>

  
  <g clip-path="url(#cv-lens)">
    
    <rect x="5.25" y="5.25" width="41.5" height="41.5" fill="#ffffff"></rect>

    
      <rect x="5.250" y="5.250" width="41.500" height="3.192" fill="url(#cv-stripe)"></rect>
      <rect x="5.250" y="11.635" width="41.500" height="3.192" fill="url(#cv-stripe)"></rect>
      <rect x="5.250" y="18.019" width="41.500" height="3.192" fill="url(#cv-stripe)"></rect>
      <rect x="5.250" y="24.404" width="41.500" height="3.192" fill="url(#cv-stripe)"></rect>
      <rect x="5.250" y="30.788" width="41.500" height="3.192" fill="url(#cv-stripe)"></rect>
      <rect x="5.250" y="37.173" width="41.500" height="3.192" fill="url(#cv-stripe)"></rect>
      <rect x="5.250" y="43.558" width="41.500" height="3.192" fill="url(#cv-stripe)"></rect>

    
    <rect x="5.25" y="5.25" width="16.600" height="22.346" fill="#1a1a2e"></rect>

    
      <polygon points="6.633,5.571 6.840,6.207 7.508,6.207 6.968,6.600 7.174,7.236 6.633,6.843 6.093,7.236 6.299,6.600 5.758,6.207 6.427,6.207" fill="#ffffff"></polygon>
      <polygon points="9.400,5.571 9.607,6.207 10.275,6.207 9.734,6.600 9.941,7.236 9.400,6.843 8.859,7.236 9.066,6.600 8.525,6.207 9.193,6.207" fill="#ffffff"></polygon>
      <polygon points="12.167,5.571 12.373,6.207 13.042,6.207 12.501,6.600 12.707,7.236 12.167,6.843 11.626,7.236 11.832,6.600 11.292,6.207 11.960,6.207" fill="#ffffff"></polygon>
      <polygon points="14.933,5.571 15.140,6.207 15.808,6.207 15.268,6.600 15.474,7.236 14.933,6.843 14.393,7.236 14.599,6.600 14.058,6.207 14.727,6.207" fill="#ffffff"></polygon>
      <polygon points="17.700,5.571 17.907,6.207 18.575,6.207 18.034,6.600 18.241,7.236 17.700,6.843 17.159,7.236 17.366,6.600 16.825,6.207 17.493,6.207" fill="#ffffff"></polygon>
      <polygon points="20.467,5.571 20.673,6.207 21.342,6.207 20.801,6.600 21.007,7.236 20.467,6.843 19.926,7.236 20.132,6.600 19.592,6.207 20.260,6.207" fill="#ffffff"></polygon>
      <polygon points="8.017,8.054 8.223,8.690 8.892,8.690 8.351,9.083 8.557,9.719 8.017,9.326 7.476,9.719 7.682,9.083 7.142,8.690 7.810,8.690" fill="#ffffff"></polygon>
      <polygon points="10.783,8.054 10.990,8.690 11.658,8.690 11.118,9.083 11.324,9.719 10.783,9.326 10.243,9.719 10.449,9.083 9.908,8.690 10.577,8.690" fill="#ffffff"></polygon>
      <polygon points="13.550,8.054 13.757,8.690 14.425,8.690 13.884,9.083 14.091,9.719 13.550,9.326 13.009,9.719 13.216,9.083 12.675,8.690 13.343,8.690" fill="#ffffff"></polygon>
      <polygon points="16.317,8.054 16.523,8.690 17.192,8.690 16.651,9.083 16.857,9.719 16.317,9.326 15.776,9.719 15.982,9.083 15.442,8.690 16.110,8.690" fill="#ffffff"></polygon>
      <polygon points="19.083,8.054 19.290,8.690 19.958,8.690 19.418,9.083 19.624,9.719 19.083,9.326 18.543,9.719 18.749,9.083 18.208,8.690 18.877,8.690" fill="#ffffff"></polygon>
      <polygon points="6.633,10.537 6.840,11.173 7.508,11.173 6.968,11.566 7.174,12.202 6.633,11.809 6.093,12.202 6.299,11.566 5.758,11.173 6.427,11.173" fill="#ffffff"></polygon>
      <polygon points="9.400,10.537 9.607,11.173 10.275,11.173 9.734,11.566 9.941,12.202 9.400,11.809 8.859,12.202 9.066,11.566 8.525,11.173 9.193,11.173" fill="#ffffff"></polygon>
      <polygon points="12.167,10.537 12.373,11.173 13.042,11.173 12.501,11.566 12.707,12.202 12.167,11.809 11.626,12.202 11.832,11.566 11.292,11.173 11.960,11.173" fill="#ffffff"></polygon>
      <polygon points="14.933,10.537 15.140,11.173 15.808,11.173 15.268,11.566 15.474,12.202 14.933,11.809 14.393,12.202 14.599,11.566 14.058,11.173 14.727,11.173" fill="#ffffff"></polygon>
      <polygon points="17.700,10.537 17.907,11.173 18.575,11.173 18.034,11.566 18.241,12.202 17.700,11.809 17.159,12.202 17.366,11.566 16.825,11.173 17.493,11.173" fill="#ffffff"></polygon>
      <polygon points="20.467,10.537 20.673,11.173 21.342,11.173 20.801,11.566 21.007,12.202 20.467,11.809 19.926,12.202 20.132,11.566 19.592,11.173 20.260,11.173" fill="#ffffff"></polygon>
      <polygon points="8.017,13.020 8.223,13.656 8.892,13.656 8.351,14.049 8.557,14.684 8.017,14.292 7.476,14.684 7.682,14.049 7.142,13.656 7.810,13.656" fill="#ffffff"></polygon>
      <polygon points="10.783,13.020 10.990,13.656 11.658,13.656 11.118,14.049 11.324,14.684 10.783,14.292 10.243,14.684 10.449,14.049 9.908,13.656 10.577,13.656" fill="#ffffff"></polygon>
      <polygon points="13.550,13.020 13.757,13.656 14.425,13.656 13.884,14.049 14.091,14.684 13.550,14.292 13.009,14.684 13.216,14.049 12.675,13.656 13.343,13.656" fill="#ffffff"></polygon>
      <polygon points="16.317,13.020 16.523,13.656 17.192,13.656 16.651,14.049 16.857,14.684 16.317,14.292 15.776,14.684 15.982,14.049 15.442,13.656 16.110,13.656" fill="#ffffff"></polygon>
      <polygon points="19.083,13.020 19.290,13.656 19.958,13.656 19.418,14.049 19.624,14.684 19.083,14.292 18.543,14.684 18.749,14.049 18.208,13.656 18.877,13.656" fill="#ffffff"></polygon>
      <polygon points="6.633,15.503 6.840,16.139 7.508,16.139 6.968,16.532 7.174,17.167 6.633,16.775 6.093,17.167 6.299,16.532 5.758,16.139 6.427,16.139" fill="#ffffff"></polygon>
      <polygon points="9.400,15.503 9.607,16.139 10.275,16.139 9.734,16.532 9.941,17.167 9.400,16.775 8.859,17.167 9.066,16.532 8.525,16.139 9.193,16.139" fill="#ffffff"></polygon>
      <polygon points="12.167,15.503 12.373,16.139 13.042,16.139 12.501,16.532 12.707,17.167 12.167,16.775 11.626,17.167 11.832,16.532 11.292,16.139 11.960,16.139" fill="#ffffff"></polygon>
      <polygon points="14.933,15.503 15.140,16.139 15.808,16.139 15.268,16.532 15.474,17.167 14.933,16.775 14.393,17.167 14.599,16.532 14.058,16.139 14.727,16.139" fill="#ffffff"></polygon>
      <polygon points="17.700,15.503 17.907,16.139 18.575,16.139 18.034,16.532 18.241,17.167 17.700,16.775 17.159,17.167 17.366,16.532 16.825,16.139 17.493,16.139" fill="#ffffff"></polygon>
      <polygon points="20.467,15.503 20.673,16.139 21.342,16.139 20.801,16.532 21.007,17.167 20.467,16.775 19.926,17.167 20.132,16.532 19.592,16.139 20.260,16.139" fill="#ffffff"></polygon>
      <polygon points="8.017,17.986 8.223,18.622 8.892,18.622 8.351,19.015 8.557,19.650 8.017,19.257 7.476,19.650 7.682,19.015 7.142,18.622 7.810,18.622" fill="#ffffff"></polygon>
      <polygon points="10.783,17.986 10.990,18.622 11.658,18.622 11.118,19.015 11.324,19.650 10.783,19.257 10.243,19.650 10.449,19.015 9.908,18.622 10.577,18.622" fill="#ffffff"></polygon>
      <polygon points="13.550,17.986 13.757,18.622 14.425,18.622 13.884,19.015 14.091,19.650 13.550,19.257 13.009,19.650 13.216,19.015 12.675,18.622 13.343,18.622" fill="#ffffff"></polygon>
      <polygon points="16.317,17.986 16.523,18.622 17.192,18.622 16.651,19.015 16.857,19.650 16.317,19.257 15.776,19.650 15.982,19.015 15.442,18.622 16.110,18.622" fill="#ffffff"></polygon>
      <polygon points="19.083,17.986 19.290,18.622 19.958,18.622 19.418,19.015 19.624,19.650 19.083,19.257 18.543,19.650 18.749,19.015 18.208,18.622 18.877,18.622" fill="#ffffff"></polygon>
      <polygon points="6.633,20.469 6.840,21.105 7.508,21.105 6.968,21.497 7.174,22.133 6.633,21.740 6.093,22.133 6.299,21.497 5.758,21.105 6.427,21.105" fill="#ffffff"></polygon>
      <polygon points="9.400,20.469 9.607,21.105 10.275,21.105 9.734,21.497 9.941,22.133 9.400,21.740 8.859,22.133 9.066,21.497 8.525,21.105 9.193,21.105" fill="#ffffff"></polygon>
      <polygon points="12.167,20.469 12.373,21.105 13.042,21.105 12.501,21.497 12.707,22.133 12.167,21.740 11.626,22.133 11.832,21.497 11.292,21.105 11.960,21.105" fill="#ffffff"></polygon>
      <polygon points="14.933,20.469 15.140,21.105 15.808,21.105 15.268,21.497 15.474,22.133 14.933,21.740 14.393,22.133 14.599,21.497 14.058,21.105 14.727,21.105" fill="#ffffff"></polygon>
      <polygon points="17.700,20.469 17.907,21.105 18.575,21.105 18.034,21.497 18.241,22.133 17.700,21.740 17.159,22.133 17.366,21.497 16.825,21.105 17.493,21.105" fill="#ffffff"></polygon>
      <polygon points="20.467,20.469 20.673,21.105 21.342,21.105 20.801,21.497 21.007,22.133 20.467,21.740 19.926,22.133 20.132,21.497 19.592,21.105 20.260,21.105" fill="#ffffff"></polygon>
      <polygon points="8.017,22.952 8.223,23.587 8.892,23.587 8.351,23.980 8.557,24.616 8.017,24.223 7.476,24.616 7.682,23.980 7.142,23.587 7.810,23.587" fill="#ffffff"></polygon>
      <polygon points="10.783,22.952 10.990,23.587 11.658,23.587 11.118,23.980 11.324,24.616 10.783,24.223 10.243,24.616 10.449,23.980 9.908,23.587 10.577,23.587" fill="#ffffff"></polygon>
      <polygon points="13.550,22.952 13.757,23.587 14.425,23.587 13.884,23.980 14.091,24.616 13.550,24.223 13.009,24.616 13.216,23.980 12.675,23.587 13.343,23.587" fill="#ffffff"></polygon>
      <polygon points="16.317,22.952 16.523,23.587 17.192,23.587 16.651,23.980 16.857,24.616 16.317,24.223 15.776,24.616 15.982,23.980 15.442,23.587 16.110,23.587" fill="#ffffff"></polygon>
      <polygon points="19.083,22.952 19.290,23.587 19.958,23.587 19.418,23.980 19.624,24.616 19.083,24.223 18.543,24.616 18.749,23.980 18.208,23.587 18.877,23.587" fill="#ffffff"></polygon>
      <polygon points="6.633,25.435 6.840,26.070 7.508,26.070 6.968,26.463 7.174,27.099 6.633,26.706 6.093,27.099 6.299,26.463 5.758,26.070 6.427,26.070" fill="#ffffff"></polygon>
      <polygon points="9.400,25.435 9.607,26.070 10.275,26.070 9.734,26.463 9.941,27.099 9.400,26.706 8.859,27.099 9.066,26.463 8.525,26.070 9.193,26.070" fill="#ffffff"></polygon>
      <polygon points="12.167,25.435 12.373,26.070 13.042,26.070 12.501,26.463 12.707,27.099 12.167,26.706 11.626,27.099 11.832,26.463 11.292,26.070 11.960,26.070" fill="#ffffff"></polygon>
      <polygon points="14.933,25.435 15.140,26.070 15.808,26.070 15.268,26.463 15.474,27.099 14.933,26.706 14.393,27.099 14.599,26.463 14.058,26.070 14.727,26.070" fill="#ffffff"></polygon>
      <polygon points="17.700,25.435 17.907,26.070 18.575,26.070 18.034,26.463 18.241,27.099 17.700,26.706 17.159,27.099 17.366,26.463 16.825,26.070 17.493,26.070" fill="#ffffff"></polygon>
      <polygon points="20.467,25.435 20.673,26.070 21.342,26.070 20.801,26.463 21.007,27.099 20.467,26.706 19.926,27.099 20.132,26.463 19.592,26.070 20.260,26.070" fill="#ffffff"></polygon>

    
    <rect x="5.25" y="5.25" width="41.5" height="41.5" fill="url(#cv-glass)"></rect>
    <rect x="5.25" y="5.25" width="41.5" height="41.5" fill="url(#cv-glass2)"></rect>

    
    <path d="M 9 17 Q 12 9 20 6.5" stroke="#ffffff" stroke-width="2.3" fill="none" stroke-linecap="round" opacity="0.55"></path>
    <path d="M 11.5 20 Q 14 13 21 11" stroke="#ffffff" stroke-width="1.1" fill="none" stroke-linecap="round" opacity="0.35"></path>
  </g>

  
  <circle cx="26" cy="26" r="19.65" fill="none" stroke="url(#cv-rim)" stroke-width="1.2" clip-path="url(#cv-lens)"></circle>

  
  <circle cx="26" cy="26" r="20.75" fill="none" stroke="#1a1a2e" stroke-width="2.5"></circle>

  
  <ellipse cx="26" cy="48.15" rx="14.524999999999999" ry="0.7" fill="#1a1a2e" opacity="0.06"></ellipse>

  
  <g transform="rotate(45 40.5 42)">
    <rect x="40.5" y="42" width="13" height="4.6" rx="1.3" fill="url(#cv-handle)"></rect>
    <rect x="40.6" y="42.2" width="12.8" height="0.7" rx="0.35" fill="#ffffff" opacity="0.18"></rect>
    <rect x="40.6" y="45.8" width="12.8" height="0.6" rx="0.3" fill="#000000" opacity="0.18"></rect>
  </g>
</svg>