<svg xmlns="http://www.w3.org/2000/svg" viewBox="0 0 64 64" role="img" aria-label="CivicView">
  <title>CivicView</title>
  <defs>
    <clipPath id="cv-lens"><circle cx="26" cy="26" r="20.75"></circle></clipPath>
  </defs>

  
  <g clip-path="url(#cv-lens)">
    
    <rect x="5.250" y="5.250" width="41.500" height="41.500" fill="#1a1a2e"></rect>

    
    <rect x="5.250" y="5.250" width="41.500" height="3.192" fill="#ffffff"></rect>
    <rect x="5.250" y="11.635" width="41.500" height="3.192" fill="#ffffff"></rect>
    <rect x="5.250" y="18.019" width="41.500" height="3.192" fill="#ffffff"></rect>
    <rect x="5.250" y="24.404" width="41.500" height="3.192" fill="#ffffff"></rect>
    <rect x="5.250" y="30.788" width="41.500" height="3.192" fill="#ffffff"></rect>
    <rect x="5.250" y="37.173" width="41.500" height="3.192" fill="#ffffff"></rect>
    <rect x="5.250" y="43.558" width="41.500" height="3.192" fill="#ffffff"></rect>

    
    <rect x="5.250" y="5.250" width="16.600" height="22.346" fill="#8a2929"></rect>

    
    <polygon points="6.633,5.541 6.847,6.198 7.537,6.198 6.978,6.604 7.192,7.260 6.633,6.854 6.075,7.260 6.288,6.604 5.730,6.198 6.420,6.198" fill="#ffffff"></polygon>
    <polygon points="9.400,5.541 9.613,6.198 10.304,6.198 9.745,6.604 9.958,7.260 9.400,6.854 8.842,7.260 9.055,6.604 8.496,6.198 9.187,6.198" fill="#ffffff"></polygon>
    <polygon points="12.167,5.541 12.380,6.198 13.070,6.198 12.512,6.604 12.725,7.260 12.167,6.854 11.608,7.260 11.822,6.604 11.263,6.198 11.953,6.198" fill="#ffffff"></polygon>
    <polygon points="14.933,5.541 15.147,6.198 15.837,6.198 15.278,6.604 15.492,7.260 14.933,6.854 14.375,7.260 14.588,6.604 14.030,6.198 14.720,6.198" fill="#ffffff"></polygon>
    <polygon points="17.700,5.541 17.913,6.198 18.604,6.198 18.045,6.604 18.258,7.260 17.700,6.854 17.142,7.260 17.355,6.604 16.796,6.198 17.487,6.198" fill="#ffffff"></polygon>
    <polygon points="20.467,5.541 20.680,6.198 21.370,6.198 20.812,6.604 21.025,7.260 20.467,6.854 19.908,7.260 20.122,6.604 19.563,6.198 20.253,6.198" fill="#ffffff"></polygon>
    <polygon points="8.017,8.024 8.230,8.681 8.920,8.681 8.362,9.087 8.575,9.743 8.017,9.337 7.458,9.743 7.672,9.087 7.113,8.681 7.803,8.681" fill="#ffffff"></polygon>
    <polygon points="10.783,8.024 10.997,8.681 11.687,8.681 11.128,9.087 11.342,9.743 10.783,9.337 10.225,9.743 10.438,9.087 9.880,8.681 10.570,8.681" fill="#ffffff"></polygon>
    <polygon points="13.550,8.024 13.763,8.681 14.454,8.681 13.895,9.087 14.108,9.743 13.550,9.337 12.992,9.743 13.205,9.087 12.646,8.681 13.337,8.681" fill="#ffffff"></polygon>
    <polygon points="16.317,8.024 16.530,8.681 17.220,8.681 16.662,9.087 16.875,9.743 16.317,9.337 15.758,9.743 15.972,9.087 15.413,8.681 16.103,8.681" fill="#ffffff"></polygon>
    <polygon points="19.083,8.024 19.297,8.681 19.987,8.681 19.428,9.087 19.642,9.743 19.083,9.337 18.525,9.743 18.738,9.087 18.180,8.681 18.870,8.681" fill="#ffffff"></polygon>
    <polygon points="6.633,10.507 6.847,11.164 7.537,11.164 6.978,11.569 7.192,12.226 6.633,11.820 6.075,12.226 6.288,11.569 5.730,11.164 6.420,11.164" fill="#ffffff"></polygon>
    <polygon points="9.400,10.507 9.613,11.164 10.304,11.164 9.745,11.569 9.958,12.226 9.400,11.820 8.842,12.226 9.055,11.569 8.496,11.164 9.187,11.164" fill="#ffffff"></polygon>
    <polygon points="12.167,10.507 12.380,11.164 13.070,11.164 12.512,11.569 12.725,12.226 12.167,11.820 11.608,12.226 11.822,11.569 11.263,11.164 11.953,11.164" fill="#ffffff"></polygon>
    <polygon points="14.933,10.507 15.147,11.164 15.837,11.164 15.278,11.569 15.492,12.226 14.933,11.820 14.375,12.226 14.588,11.569 14.030,11.164 14.720,11.164" fill="#ffffff"></polygon>
    <polygon points="17.700,10.507 17.913,11.164 18.604,11.164 18.045,11.569 18.258,12.226 17.700,11.820 17.142,12.226 17.355,11.569 16.796,11.164 17.487,11.164" fill="#ffffff"></polygon>
    <polygon points="20.467,10.507 20.680,11.164 21.370,11.164 20.812,11.569 21.025,12.226 20.467,11.820 19.908,12.226 20.122,11.569 19.563,11.164 20.253,11.164" fill="#ffffff"></polygon>
    <polygon points="8.017,12.990 8.230,13.647 8.920,13.647 8.362,14.052 8.575,14.709 8.017,14.303 7.458,14.709 7.672,14.052 7.113,13.647 7.803,13.647" fill="#ffffff"></polygon>
    <polygon points="10.783,12.990 10.997,13.647 11.687,13.647 11.128,14.052 11.342,14.709 10.783,14.303 10.225,14.709 10.438,14.052 9.880,13.647 10.570,13.647" fill="#ffffff"></polygon>
    <polygon points="13.550,12.990 13.763,13.647 14.454,13.647 13.895,14.052 14.108,14.709 13.550,14.303 12.992,14.709 13.205,14.052 12.646,13.647 13.337,13.647" fill="#ffffff"></polygon>
    <polygon points="16.317,12.990 16.530,13.647 17.220,13.647 16.662,14.052 16.875,14.709 16.317,14.303 15.758,14.709 15.972,14.052 15.413,13.647 16.103,13.647" fill="#ffffff"></polygon>
    <polygon points="19.083,12.990 19.297,13.647 19.987,13.647 19.428,14.052 19.642,14.709 19.083,14.303 18.525,14.709 18.738,14.052 18.180,13.647 18.870,13.647" fill="#ffffff"></polygon>
    <polygon points="6.633,15.473 6.847,16.129 7.537,16.130 6.978,16.535 7.192,17.192 6.633,16.786 6.075,17.192 6.288,16.535 5.730,16.130 6.420,16.129" fill="#ffffff"></polygon>
    <polygon points="9.400,15.473 9.613,16.129 10.304,16.130 9.745,16.535 9.958,17.192 9.400,16.786 8.842,17.192 9.055,16.535 8.496,16.130 9.187,16.129" fill="#ffffff"></polygon>
    <polygon points="12.167,15.473 12.380,16.129 13.070,16.130 12.512,16.535 12.725,17.192 12.167,16.786 11.608,17.192 11.822,16.535 11.263,16.130 11.953,16.129" fill="#ffffff"></polygon>
    <polygon points="14.933,15.473 15.147,16.129 15.837,16.130 15.278,16.535 15.492,17.192 14.933,16.786 14.375,17.192 14.588,16.535 14.030,16.130 14.720,16.129" fill="#ffffff"></polygon>
    <polygon points="17.700,15.473 17.913,16.129 18.604,16.130 18.045,16.535 18.258,17.192 17.700,16.786 17.142,17.192 17.355,16.535 16.796,16.130 17.487,16.129" fill="#ffffff"></polygon>
    <polygon points="20.467,15.473 20.680,16.129 21.370,16.130 20.812,16.535 21.025,17.192 20.467,16.786 19.908,17.192 20.122,16.535 19.563,16.130 20.253,16.129" fill="#ffffff"></polygon>
    <polygon points="8.017,17.956 8.230,18.612 8.920,18.612 8.362,19.018 8.575,19.675 8.017,19.269 7.458,19.675 7.672,19.018 7.113,18.612 7.803,18.612" fill="#ffffff"></polygon>
    <polygon points="10.783,17.956 10.997,18.612 11.687,18.612 11.128,19.018 11.342,19.675 10.783,19.269 10.225,19.675 10.438,19.018 9.880,18.612 10.570,18.612" fill="#ffffff"></polygon>
    <polygon points="13.550,17.956 13.763,18.612 14.454,18.612 13.895,19.018 14.108,19.675 13.550,19.269 12.992,19.675 13.205,19.018 12.646,18.612 13.337,18.612" fill="#ffffff"></polygon>
    <polygon points="16.317,17.956 16.530,18.612 17.220,18.612 16.662,19.018 16.875,19.675 16.317,19.269 15.758,19.675 15.972,19.018 15.413,18.612 16.103,18.612" fill="#ffffff"></polygon>
    <polygon points="19.083,17.956 19.297,18.612 19.987,18.612 19.428,19.018 19.642,19.675 19.083,19.269 18.525,19.675 18.738,19.018 18.180,18.612 18.870,18.612" fill="#ffffff"></polygon>
    <polygon points="6.633,20.439 6.847,21.095 7.537,21.095 6.978,21.501 7.192,22.157 6.633,21.752 6.075,22.157 6.288,21.501 5.730,21.095 6.420,21.095" fill="#ffffff"></polygon>
    <polygon points="9.400,20.439 9.613,21.095 10.304,21.095 9.745,21.501 9.958,22.157 9.400,21.752 8.842,22.157 9.055,21.501 8.496,21.095 9.187,21.095" fill="#ffffff"></polygon>
    <polygon points="12.167,20.439 12.380,21.095 13.070,21.095 12.512,21.501 12.725,22.157 12.167,21.752 11.608,22.157 11.822,21.501 11.263,21.095 11.953,21.095" fill="#ffffff"></polygon>
    <polygon points="14.933,20.439 15.147,21.095 15.837,21.095 15.278,21.501 15.492,22.157 14.933,21.752 14.375,22.157 14.588,21.501 14.030,21.095 14.720,21.095" fill="#ffffff"></polygon>
    <polygon points="17.700,20.439 17.913,21.095 18.604,21.095 18.045,21.501 18.258,22.157 17.700,21.752 17.142,22.157 17.355,21.501 16.796,21.095 17.487,21.095" fill="#ffffff"></polygon>
    <polygon points="20.467,20.439 20.680,21.095 21.370,21.095 20.812,21.501 21.025,22.157 20.467,21.752 19.908,22.157 20.122,21.501 19.563,21.095 20.253,21.095" fill="#ffffff"></polygon>
    <polygon points="8.017,22.922 8.230,23.578 8.920,23.578 8.362,23.984 8.575,24.640 8.017,24.235 7.458,24.640 7.672,23.984 7.113,23.578 7.803,23.578" fill="#ffffff"></polygon>
    <polygon points="10.783,22.922 10.997,23.578 11.687,23.578 11.128,23.984 11.342,24.640 10.783,24.235 10.225,24.640 10.438,23.984 9.880,23.578 10.570,23.578" fill="#ffffff"></polygon>
    <polygon points="13.550,22.922 13.763,23.578 14.454,23.578 13.895,23.984 14.108,24.640 13.550,24.235 12.992,24.640 13.205,23.984 12.646,23.578 13.337,23.578" fill="#ffffff"></polygon>
    <polygon points="16.317,22.922 16.530,23.578 17.220,23.578 16.662,23.984 16.875,24.640 16.317,24.235 15.758,24.640 15.972,23.984 15.413,23.578 16.103,23.578" fill="#ffffff"></polygon>
    <polygon points="19.083,22.922 19.297,23.578 19.987,23.578 19.428,23.984 19.642,24.640 19.083,24.235 18.525,24.640 18.738,23.984 18.180,23.578 18.870,23.578" fill="#ffffff"></polygon>
    <polygon points="6.633,25.405 6.847,26.061 7.537,26.061 6.978,26.467 7.192,27.123 6.633,26.718 6.075,27.123 6.288,26.467 5.730,26.061 6.420,26.061" fill="#ffffff"></polygon>
    <polygon points="9.400,25.405 9.613,26.061 10.304,26.061 9.745,26.467 9.958,27.123 9.400,26.718 8.842,27.123 9.055,26.467 8.496,26.061 9.187,26.061" fill="#ffffff"></polygon>
    <polygon points="12.167,25.405 12.380,26.061 13.070,26.061 12.512,26.467 12.725,27.123 12.167,26.718 11.608,27.123 11.822,26.467 11.263,26.061 11.953,26.061" fill="#ffffff"></polygon>
    <polygon points="14.933,25.405 15.147,26.061 15.837,26.061 15.278,26.467 15.492,27.123 14.933,26.718 14.375,27.123 14.588,26.467 14.030,26.061 14.720,26.061" fill="#ffffff"></polygon>
    <polygon points="17.700,25.405 17.913,26.061 18.604,26.061 18.045,26.467 18.258,27.123 17.700,26.718 17.142,27.123 17.355,26.467 16.796,26.061 17.487,26.061" fill="#ffffff"></polygon>
    <polygon points="20.467,25.405 20.680,26.061 21.370,26.061 20.812,26.467 21.025,27.123 20.467,26.718 19.908,27.123 20.122,26.467 19.563,26.061 20.253,26.061" fill="#ffffff"></polygon>

    
    <path d="M 9 16 Q 12 10 17.5 7.5" stroke="#ffffff" stroke-width="2.2" fill="none" stroke-linecap="round" opacity="0.34"></path>
  </g>

  
  <circle cx="26" cy="26" r="20.75" fill="none" stroke="#ffffff" stroke-width="2.5"></circle>

  
  <rect x="40.5" y="42" width="14" height="4.6" rx="1.4" transform="rotate(45 40.5 42)" fill="#ffffff"></rect>
</svg>